<svg xmlns="http://www.w3.org/2000/svg" xmlns:svg="http://www.w3.org/2000/svg" id="svg2" width="127.825" height="62.426" version="1.1"><metadata id="metadata7"/><g id="layer1" transform="translate(-165.00893,-164.53963)"><rect id="rect2991" width="30.81" height="42.426" x="175.009" y="174.54" fill="#000"/><text id="text2985" x="178.153" y="209.505" fill="#000" fill-opacity="1" stroke="none" font-family="Ubuntu" font-size="40" font-stretch="normal" font-style="normal" font-variant="normal" font-weight="normal" letter-spacing="0" word-spacing="0" xml:space="preserve" style="line-height:125%;-inkscape-font-specification:Ubuntu"><tspan style="-inkscape-font-specification:Ubuntu Bold" id="tspan2987" x="178.153" y="209.505" font-weight="bold" letter-spacing="5.29"><tspan id="tspan2989" fill="#fff" letter-spacing="6.6">E</tspan><tspan id="tspan2995" fill="#333">VIL</tspan></tspan></text><g id="text2997" fill="#000" fill-opacity="1" stroke="none" font-family="Ubuntu" font-size="40" font-stretch="normal" font-style="normal" font-variant="normal" font-weight="normal" letter-spacing="0" transform="matrix(0.89694705,0.44213798,-0.44213798,0.89694705,260.2961,-122.4502)" word-spacing="0" style="line-height:125%;-inkscape-font-specification:Ubuntu"><path id="path3002" fill="#333" d="m 144.8919,272.13985 c 0.57684,-0.24621 1.4908,-0.78829 1.94103,-1.23149 0.46429,-0.46428 0.81251,-0.98134 1.04466,-1.55116 0.23214,-0.5698 0.33721,-0.99165 0.33722,-1.62479 0.0155,-0.43449 -0.28674,-1.22826 -0.57298,-1.8313 -0.26496,-0.55821 -0.52007,-1.02571 -0.52007,-1.02571 l -1.99277,2.29588 0.22983,-5.91917 5.5976,0.45081 -2.34283,1.96492 c 0,0 0.49752,1.04212 0.73633,1.68916 0.23881,0.64704 0.58739,1.34614 0.66973,2.19566 0.0366,0.62546 -0.16181,1.70241 -0.4854,2.4903 -0.33767,0.79493 -0.81956,1.50544 -1.44564,2.13152 -0.59093,0.58389 -1.53465,1.17717 -2.35067,1.54297"/></g></g></svg>